<svg width="16" height="16" viewBox="0 0 16 16" fill="none" xmlns="http://www.w3.org/2000/svg">
<path d="M0.42088 0.42088C0.690451 0.151391 1.05602 0 1.43719 0C1.81837 0 2.18393 0.151391 2.45351 0.42088L7.53651 5.50388L12.6195 0.42088C12.8906 0.159028 13.2537 0.0141363 13.6306 0.0174115C14.0076 0.0206868 14.3681 0.171867 14.6346 0.438391C14.9011 0.704915 15.0523 1.06546 15.0556 1.44237C15.0589 1.81927 14.914 2.18239 14.6521 2.45351L9.56913 7.53651L14.6521 12.6195C14.914 12.8906 15.0589 13.2537 15.0556 13.6306C15.0523 14.0076 14.9011 14.3681 14.6346 14.6346C14.3681 14.9011 14.0076 15.0523 13.6306 15.0556C13.2537 15.0589 12.8906 14.914 12.6195 14.6521L7.53651 9.56913L2.45351 14.6521C2.18239 14.914 1.81927 15.0589 1.44237 15.0556C1.06546 15.0523 0.704915 14.9011 0.438391 14.6346C0.171867 14.3681 0.0206868 14.0076 0.0174115 13.6306C0.0141363 13.2537 0.159028 12.8906 0.42088 12.6195L5.50388 7.53651L0.42088 2.45351C0.151391 2.18393 0 1.81837 0 1.43719C0 1.05602 0.151391 0.690451 0.42088 0.42088Z" fill="white"/>
</svg>
